<svg width="57" height="24" viewBox="0 0 57 24" fill="none" xmlns="http://www.w3.org/2000/svg">
<path d="M3.328 18V6.8H5.92V15.888H11.536V18H3.328ZM14.612 18V13.424L15.204 14.992L10.276 6.8H13.028L16.804 13.088H15.22L19.012 6.8H21.556L16.628 14.992L17.204 13.424V18H14.612ZM21.9205 18V16.32L28.8485 7.968L29.1685 8.912H22.0485V6.8H31.4725V8.48L24.5605 16.832L24.2405 15.888H31.7125V18H21.9205ZM35.7589 11.312H41.1509V13.328H35.7589V11.312ZM35.9509 15.92H42.0469V18H33.3749V6.8H41.8389V8.88H35.9509V15.92ZM44.1093 18V6.8H48.9573C49.9599 6.8 50.8239 6.96533 51.5493 7.296C52.2746 7.616 52.8346 8.08 53.2293 8.688C53.6239 9.296 53.8213 10.0213 53.8213 10.864C53.8213 11.696 53.6239 12.416 53.2293 13.024C52.8346 13.6213 52.2746 14.08 51.5493 14.4C50.8239 14.72 49.9599 14.88 48.9573 14.88H45.5493L46.7013 13.744V18H44.1093ZM51.2292 18L48.4293 13.936H51.1973L54.0293 18H51.2292ZM46.7013 14.032L45.5493 12.816H48.8133C49.6133 12.816 50.2106 12.6453 50.6053 12.304C50.9999 11.952 51.1973 11.472 51.1973 10.864C51.1973 10.2453 50.9999 9.76533 50.6053 9.424C50.2106 9.08267 49.6133 8.912 48.8133 8.912H45.5493L46.7013 7.68V14.032Z" fill="black"/>
</svg>
