<svg width="133" height="24" viewBox="0 0 133 24" fill="none" xmlns="http://www.w3.org/2000/svg">
<path d="M3.328 18V6.8H5.92V15.888H11.536V18H3.328ZM14.612 18V13.424L15.204 14.992L10.276 6.8H13.028L16.804 13.088H15.22L19.012 6.8H21.556L16.628 14.992L17.204 13.424V18H14.612ZM21.9205 18V16.32L28.8485 7.968L29.1685 8.912H22.0485V6.8H31.4725V8.48L24.5605 16.832L24.2405 15.888H31.7125V18H21.9205ZM35.7589 11.312H41.1509V13.328H35.7589V11.312ZM35.9509 15.92H42.0469V18H33.3749V6.8H41.8389V8.88H35.9509V15.92ZM44.1093 18V6.8H48.9573C49.9599 6.8 50.8239 6.96533 51.5493 7.296C52.2746 7.616 52.8346 8.08 53.2293 8.688C53.6239 9.296 53.8213 10.0213 53.8213 10.864C53.8213 11.696 53.6239 12.416 53.2293 13.024C52.8346 13.6213 52.2746 14.08 51.5493 14.4C50.8239 14.72 49.9599 14.88 48.9573 14.88H45.5493L46.7013 13.744V18H44.1093ZM51.2292 18L48.4293 13.936H51.1973L54.0293 18H51.2292ZM46.7013 14.032L45.5493 12.816H48.8133C49.6133 12.816 50.2106 12.6453 50.6053 12.304C50.9999 11.952 51.1973 11.472 51.1973 10.864C51.1973 10.2453 50.9999 9.76533 50.6053 9.424C50.2106 9.08267 49.6133 8.912 48.8133 8.912H45.5493L46.7013 7.68V14.032Z" fill="black"/>
<path d="M60.116 9.092H69.92V10.232H60.116V9.092ZM59.6 16.376H70.412V17.528H59.6V16.376ZM61.712 11.012L62.852 10.748C63.012 11.268 63.164 11.824 63.308 12.416C63.46 13 63.596 13.576 63.716 14.144C63.844 14.704 63.94 15.208 64.004 15.656L62.792 15.956C62.744 15.508 62.66 15 62.54 14.432C62.428 13.864 62.296 13.284 62.144 12.692C62 12.092 61.856 11.532 61.712 11.012ZM67.16 10.76L68.444 11C68.308 11.496 68.16 12.012 68 12.548C67.848 13.076 67.684 13.6 67.508 14.12C67.34 14.64 67.168 15.136 66.992 15.608C66.824 16.072 66.66 16.488 66.5 16.856L65.372 16.592C65.54 16.224 65.708 15.8 65.876 15.32C66.052 14.832 66.22 14.324 66.38 13.796C66.54 13.268 66.688 12.744 66.824 12.224C66.96 11.704 67.072 11.216 67.16 10.76ZM64.028 7.064L65.144 6.776C65.264 7.08 65.384 7.412 65.504 7.772C65.624 8.124 65.716 8.432 65.78 8.696L64.604 9.032C64.556 8.768 64.476 8.452 64.364 8.084C64.252 7.708 64.14 7.368 64.028 7.064ZM76.58 10.496H81.476V11.492H76.58V10.496ZM75.668 12.644H82.508V13.664H75.668V12.644ZM75.62 8.324H82.436V10.556H81.344V9.308H76.676V10.556H75.62V8.324ZM77.276 13.136H78.368C78.336 13.736 78.268 14.288 78.164 14.792C78.068 15.296 77.912 15.752 77.696 16.16C77.48 16.56 77.176 16.912 76.784 17.216C76.392 17.528 75.888 17.792 75.272 18.008C75.216 17.864 75.124 17.7 74.996 17.516C74.868 17.34 74.744 17.2 74.624 17.096C75.176 16.928 75.62 16.72 75.956 16.472C76.292 16.224 76.548 15.94 76.724 15.62C76.908 15.292 77.036 14.924 77.108 14.516C77.188 14.1 77.244 13.64 77.276 13.136ZM79.4 13.112H80.468V16.52C80.468 16.68 80.484 16.78 80.516 16.82C80.548 16.86 80.62 16.88 80.732 16.88C80.764 16.88 80.824 16.88 80.912 16.88C81.008 16.88 81.104 16.88 81.2 16.88C81.296 16.88 81.364 16.88 81.404 16.88C81.476 16.88 81.532 16.848 81.572 16.784C81.612 16.712 81.64 16.572 81.656 16.364C81.68 16.148 81.696 15.828 81.704 15.404C81.784 15.46 81.88 15.516 81.992 15.572C82.104 15.628 82.22 15.68 82.34 15.728C82.46 15.768 82.568 15.8 82.664 15.824C82.632 16.352 82.576 16.764 82.496 17.06C82.416 17.356 82.296 17.56 82.136 17.672C81.984 17.792 81.78 17.852 81.524 17.852C81.476 17.852 81.404 17.852 81.308 17.852C81.22 17.852 81.124 17.852 81.02 17.852C80.924 17.852 80.832 17.852 80.744 17.852C80.656 17.852 80.592 17.852 80.552 17.852C80.24 17.852 80 17.812 79.832 17.732C79.664 17.652 79.548 17.512 79.484 17.312C79.428 17.12 79.4 16.856 79.4 16.52V13.112ZM77.996 7.076L79.052 6.764C79.204 7.004 79.348 7.272 79.484 7.568C79.628 7.856 79.736 8.108 79.808 8.324L78.692 8.696C78.636 8.48 78.54 8.22 78.404 7.916C78.276 7.604 78.14 7.324 77.996 7.076ZM71.888 7.352H74.672V8.372H72.896V17.984H71.888V7.352ZM74.408 7.352H74.588L74.756 7.316L75.5 7.736C75.332 8.232 75.148 8.76 74.948 9.32C74.756 9.88 74.564 10.396 74.372 10.868C74.78 11.364 75.044 11.828 75.164 12.26C75.292 12.684 75.356 13.08 75.356 13.448C75.356 13.8 75.316 14.104 75.236 14.36C75.164 14.608 75.036 14.8 74.852 14.936C74.764 15 74.664 15.052 74.552 15.092C74.448 15.124 74.332 15.152 74.204 15.176C74.092 15.184 73.964 15.192 73.82 15.2C73.684 15.2 73.548 15.196 73.412 15.188C73.404 15.06 73.376 14.9 73.328 14.708C73.288 14.516 73.228 14.348 73.148 14.204C73.268 14.212 73.38 14.22 73.484 14.228C73.588 14.228 73.684 14.224 73.772 14.216C73.916 14.208 74.032 14.176 74.12 14.12C74.208 14.056 74.268 13.956 74.3 13.82C74.332 13.676 74.348 13.512 74.348 13.328C74.348 13.016 74.284 12.664 74.156 12.272C74.028 11.872 73.768 11.444 73.376 10.988C73.48 10.724 73.58 10.44 73.676 10.136C73.772 9.832 73.864 9.528 73.952 9.224C74.048 8.92 74.132 8.632 74.204 8.36C74.284 8.088 74.352 7.856 74.408 7.664V7.352ZM90.236 13.736L91.328 13.244C91.656 13.676 91.992 14.14 92.336 14.636C92.68 15.132 93 15.616 93.296 16.088C93.592 16.56 93.836 16.98 94.028 17.348L92.876 17.972C92.692 17.596 92.452 17.164 92.156 16.676C91.868 16.18 91.552 15.676 91.208 15.164C90.872 14.652 90.548 14.176 90.236 13.736ZM86.684 7.184L87.944 7.58C87.656 8.244 87.316 8.896 86.924 9.536C86.54 10.176 86.128 10.776 85.688 11.336C85.256 11.888 84.816 12.372 84.368 12.788C84.304 12.7 84.208 12.596 84.08 12.476C83.96 12.356 83.836 12.24 83.708 12.128C83.58 12.008 83.464 11.912 83.36 11.84C83.8 11.472 84.228 11.04 84.644 10.544C85.06 10.048 85.44 9.512 85.784 8.936C86.136 8.36 86.436 7.776 86.684 7.184ZM84.908 17.492C84.876 17.404 84.832 17.284 84.776 17.132C84.728 16.988 84.676 16.836 84.62 16.676C84.564 16.516 84.504 16.38 84.44 16.268C84.624 16.22 84.804 16.112 84.98 15.944C85.156 15.768 85.364 15.54 85.604 15.26C85.732 15.124 85.912 14.904 86.144 14.6C86.384 14.288 86.648 13.916 86.936 13.484C87.224 13.052 87.516 12.588 87.812 12.092C88.108 11.596 88.376 11.096 88.616 10.592L89.924 11.144C89.532 11.84 89.108 12.532 88.652 13.22C88.196 13.9 87.724 14.548 87.236 15.164C86.756 15.772 86.276 16.32 85.796 16.808V16.844C85.796 16.844 85.748 16.868 85.652 16.916C85.564 16.956 85.46 17.008 85.34 17.072C85.228 17.136 85.128 17.204 85.04 17.276C84.952 17.356 84.908 17.428 84.908 17.492ZM84.908 17.492L84.872 16.532L85.664 16.088L92.66 15.668C92.684 15.844 92.72 16.036 92.768 16.244C92.824 16.452 92.872 16.62 92.912 16.748C91.792 16.828 90.828 16.9 90.02 16.964C89.212 17.02 88.528 17.068 87.968 17.108C87.416 17.156 86.96 17.196 86.6 17.228C86.24 17.26 85.952 17.288 85.736 17.312C85.52 17.344 85.348 17.372 85.22 17.396C85.1 17.42 84.996 17.452 84.908 17.492ZM90.236 7.16H91.58C91.764 7.768 92.012 8.36 92.324 8.936C92.636 9.504 92.996 10.024 93.404 10.496C93.812 10.968 94.256 11.356 94.736 11.66C94.648 11.74 94.548 11.848 94.436 11.984C94.324 12.112 94.216 12.248 94.112 12.392C94.016 12.528 93.932 12.656 93.86 12.776C93.364 12.392 92.9 11.936 92.468 11.408C92.036 10.872 91.652 10.296 91.316 9.68C90.988 9.064 90.72 8.44 90.512 7.808H90.236V7.16ZM88.604 7.16H91.184V8.336H88.604V7.16ZM101.72 11.504H105.536V12.428H101.72V11.504ZM101.192 7.4H105.524V8.408H102.224V17.996H101.192V7.4ZM104.948 7.4H106.004V9.704C106.004 9.96 105.968 10.168 105.896 10.328C105.824 10.48 105.684 10.596 105.476 10.676C105.276 10.748 105.016 10.796 104.696 10.82C104.376 10.836 103.988 10.844 103.532 10.844C103.516 10.684 103.476 10.512 103.412 10.328C103.348 10.144 103.28 9.984 103.208 9.848C103.432 9.856 103.644 9.864 103.844 9.872C104.052 9.872 104.232 9.872 104.384 9.872C104.536 9.872 104.644 9.868 104.708 9.86C104.804 9.852 104.868 9.84 104.9 9.824C104.932 9.8 104.948 9.756 104.948 9.692V7.4ZM103.04 12.068C103.256 12.78 103.536 13.46 103.88 14.108C104.232 14.748 104.644 15.32 105.116 15.824C105.596 16.328 106.128 16.728 106.712 17.024C106.592 17.128 106.456 17.268 106.304 17.444C106.16 17.628 106.044 17.792 105.956 17.936C105.348 17.576 104.8 17.112 104.312 16.544C103.832 15.976 103.412 15.328 103.052 14.6C102.7 13.872 102.408 13.104 102.176 12.296L103.04 12.068ZM105.2 11.504H105.404L105.596 11.456L106.28 11.708C106.128 12.596 105.892 13.44 105.572 14.24C105.26 15.04 104.864 15.764 104.384 16.412C103.904 17.052 103.344 17.592 102.704 18.032C102.616 17.904 102.496 17.768 102.344 17.624C102.2 17.48 102.068 17.36 101.948 17.264C102.54 16.872 103.06 16.388 103.508 15.812C103.956 15.228 104.32 14.588 104.6 13.892C104.888 13.188 105.088 12.472 105.2 11.744V11.504ZM95.864 8.024H100.496V8.984H95.864V8.024ZM95.516 14.696H100.796V15.668H95.516V14.696ZM95.516 10.028H100.784V11H95.516V10.028ZM95.78 12.572H100.568V13.532H95.78V12.572ZM97.688 6.896H98.744V10.376H97.688V6.896ZM97.688 12.956H98.744V17.972H97.688V12.956ZM99.272 10.952L100.244 11.192C100.076 11.536 99.9 11.876 99.716 12.212C99.54 12.548 99.368 12.84 99.2 13.088L98.384 12.848C98.496 12.68 98.608 12.484 98.72 12.26C98.832 12.036 98.936 11.808 99.032 11.576C99.128 11.344 99.208 11.136 99.272 10.952ZM96.284 11.228L97.112 10.976C97.24 11.2 97.36 11.444 97.472 11.708C97.584 11.964 97.656 12.184 97.688 12.368L96.812 12.668C96.772 12.476 96.7 12.244 96.596 11.972C96.5 11.692 96.396 11.444 96.284 11.228ZM107.3 13.124C107.764 13.012 108.316 12.872 108.956 12.704C109.596 12.528 110.248 12.348 110.912 12.164L111.044 13.208C110.444 13.392 109.836 13.572 109.22 13.748C108.612 13.924 108.056 14.084 107.552 14.228L107.3 13.124ZM107.492 9.224H110.948V10.292H107.492V9.224ZM108.812 6.884H109.88V16.676C109.88 16.956 109.848 17.18 109.784 17.348C109.72 17.516 109.604 17.644 109.436 17.732C109.276 17.82 109.068 17.876 108.812 17.9C108.556 17.932 108.232 17.948 107.84 17.948C107.832 17.804 107.796 17.628 107.732 17.42C107.668 17.212 107.6 17.028 107.528 16.868C107.768 16.876 107.988 16.884 108.188 16.892C108.396 16.892 108.536 16.888 108.608 16.88C108.68 16.88 108.732 16.868 108.764 16.844C108.796 16.812 108.812 16.756 108.812 16.676V6.884ZM113.948 7.04L114.944 6.752C115.064 6.96 115.172 7.196 115.268 7.46C115.372 7.716 115.436 7.936 115.46 8.12L114.404 8.456C114.388 8.264 114.336 8.036 114.248 7.772C114.16 7.508 114.06 7.264 113.948 7.04ZM111.368 10.136H117.524V11.072H112.436V17.996H111.368V10.136ZM117.008 10.136H118.1V16.808C118.1 17.072 118.068 17.28 118.004 17.432C117.94 17.584 117.816 17.7 117.632 17.78C117.464 17.868 117.248 17.92 116.984 17.936C116.728 17.96 116.408 17.972 116.024 17.972C116.008 17.828 115.964 17.66 115.892 17.468C115.828 17.284 115.76 17.124 115.688 16.988C115.928 16.996 116.156 17 116.372 17C116.596 17 116.744 17 116.816 17C116.888 16.992 116.936 16.976 116.96 16.952C116.992 16.928 117.008 16.876 117.008 16.796V10.136ZM112.82 12.044H116.684V12.836H112.82V12.044ZM113.648 13.76H116.312V16.232H113.648V15.5H115.484V14.504H113.648V13.76ZM113.144 13.76H113.948V16.712H113.144V13.76ZM114.296 10.928H115.196V14.18H114.296V10.928ZM111.2 7.808H118.412V8.744H111.2V7.808ZM112.448 8.948L113.456 8.684C113.56 8.884 113.656 9.104 113.744 9.344C113.832 9.576 113.892 9.78 113.924 9.956L112.868 10.244C112.844 10.068 112.788 9.86 112.7 9.62C112.62 9.372 112.536 9.148 112.448 8.948ZM116.048 8.636L117.116 8.9C116.98 9.188 116.848 9.476 116.72 9.764C116.592 10.052 116.468 10.3 116.348 10.508L115.46 10.268C115.532 10.116 115.604 9.944 115.676 9.752C115.756 9.56 115.828 9.368 115.892 9.176C115.964 8.976 116.016 8.796 116.048 8.636ZM119.6 13.712H130.412V14.66H119.6V13.712ZM119.78 7.352H130.184V8.348H119.78V7.352ZM127.496 13.016L128.6 13.316C128.32 14.132 127.94 14.82 127.46 15.38C126.988 15.94 126.404 16.4 125.708 16.76C125.02 17.12 124.204 17.396 123.26 17.588C122.316 17.78 121.232 17.924 120.008 18.02C119.968 17.86 119.908 17.688 119.828 17.504C119.748 17.32 119.66 17.164 119.564 17.036C120.724 16.972 121.744 16.86 122.624 16.7C123.504 16.54 124.264 16.308 124.904 16.004C125.544 15.7 126.072 15.308 126.488 14.828C126.912 14.34 127.248 13.736 127.496 13.016ZM121.04 15.968L121.916 15.236C122.692 15.356 123.468 15.496 124.244 15.656C125.02 15.816 125.772 15.98 126.5 16.148C127.228 16.316 127.908 16.488 128.54 16.664C129.18 16.84 129.748 17.012 130.244 17.18L129.212 17.984C128.612 17.752 127.88 17.516 127.016 17.276C126.16 17.044 125.224 16.816 124.208 16.592C123.192 16.36 122.136 16.152 121.04 15.968ZM123.008 7.724H124.088V11.888H123.008V7.724ZM125.78 7.724H126.848V11.888H125.78V7.724ZM121.424 10.124V11.54H128.612V10.124H121.424ZM120.368 9.212H129.74V12.44H120.368V9.212ZM121.04 15.968C121.304 15.672 121.58 15.328 121.868 14.936C122.156 14.544 122.432 14.136 122.696 13.712C122.96 13.288 123.18 12.884 123.356 12.5L124.484 12.764C124.308 13.14 124.092 13.528 123.836 13.928C123.588 14.32 123.332 14.696 123.068 15.056C122.812 15.408 122.576 15.716 122.36 15.98L121.04 15.968Z" fill="black"/>
</svg>
